<?xml version="1.0" encoding="UTF-8"?>
<svg id="Calque_2" data-name="Calque 2" xmlns="http://www.w3.org/2000/svg" xmlns:xlink="http://www.w3.org/1999/xlink" viewBox="0 0 302.77 107.44">
  <defs>
    <style>
      .cls-1 {
        clip-path: url(#clippath);
      }

      .cls-2 {
        fill: none;
      }

      .cls-2, .cls-3 {
        stroke-width: 0px;
      }

      .cls-3 {
        fill: #ffecb8;
      }
    </style>
    <clipPath id="clippath">
      <rect class="cls-2" width="302.77" height="107.44"/>
    </clipPath>
  </defs>
  <g id="Calque_2-2" data-name="Calque 2">
    <g class="cls-1">
      <path class="cls-3" d="M266.38,48.32c.55.42,1.11.81,1.69,1.17-.26-.46-.53-.92-.79-1.38-.11,1.04-.23,2.09-.34,3.14-.06.53.34,1.15.79,1.38,2.9,1.53,5.98,2.43,9.24,2.76.52.05,1.15-.34,1.38-.79.48-.94.96-1.87,1.45-2.81-.46.26-.92.53-1.38.79.69.01,1.37,0,2.05-.04-.46-.26-.92-.53-1.38-.79.52.91,1.05,1.83,1.57,2.74.39.68,1.1.84,1.81.74,3.07-.45,6.01-1.5,8.69-3.06.67-.39.85-1.1.74-1.81-.16-1.04-.32-2.08-.48-3.12-.25.6-.49,1.21-.74,1.81.68-.47,1.33-.97,1.96-1.5-.65.08-1.3.17-1.94.25.96.43,1.92.87,2.88,1.3.67.3,1.39.28,1.94-.25,2.22-2.17,4.01-4.72,5.27-7.56.29-.67.29-1.4-.25-1.94-.74-.75-1.48-1.5-2.22-2.24.14.52.27,1.04.41,1.56.23-.65.42-1.3.59-1.97-.37.37-.75.75-1.12,1.12,1.03-.21,2.06-.43,3.09-.64.5-.1,1.03-.61,1.12-1.12.55-3.24.5-6.44-.2-9.65-.11-.49-.61-1.04-1.12-1.12-1.04-.17-2.08-.34-3.12-.51.37.37.75.75,1.12,1.12-.2-.66-.42-1.3-.68-1.94-.32-.8-1.07-1.37-1.97-1.12-.76.21-1.44,1.16-1.12,1.97.25.64.48,1.28.68,1.94.15.49.58,1.03,1.12,1.12,1.04.17,2.08.34,3.12.51-.37-.37-.75-.75-1.12-1.12.56,2.61.64,5.31.2,7.95.37-.37.75-.75,1.12-1.12-1.03.21-2.06.43-3.09.64-.53.11-.99.61-1.12,1.12-.17.67-.36,1.32-.59,1.97-.18.53.03,1.17.41,1.56.74.75,1.48,1.5,2.22,2.24-.08-.65-.17-1.29-.25-1.94-1.15,2.61-2.73,4.92-4.76,6.91.65-.08,1.29-.17,1.94-.25l-2.88-1.3c-.71-.32-1.34-.25-1.94.25-.43.35-.86.68-1.32.99-.65.45-.85,1.05-.74,1.81.16,1.04.32,2.08.48,3.12.25-.6.49-1.21.74-1.81-2.46,1.43-5.11,2.33-7.93,2.74.6.25,1.21.49,1.81.74-.52-.91-1.04-1.83-1.57-2.74-.27-.46-.83-.83-1.38-.79-.69.04-1.37.06-2.05.04-.54-.01-1.13.31-1.38.79-.48.94-.96,1.87-1.45,2.81.46-.26.92-.53,1.38-.79-2.67-.27-5.25-1.07-7.62-2.32.26.46.53.92.79,1.38.11-1.05.23-2.09.34-3.14.06-.56-.35-1.11-.8-1.38-.58-.37-1.14-.76-1.69-1.17-.69-.53-1.79-.1-2.19.58-.49.82-.11,1.67.58,2.19"/>
      <path class="cls-3" d="M104.25,34.2c2.2,0,4.14-.37,5.8-1.11s2.97-1.82,3.91-3.25c.94-1.43,1.41-3.19,1.41-5.27s-.37-3.99-1.12-5.47c-.75-1.48-1.87-2.6-3.38-3.35-1.51-.76-3.41-1.14-5.71-1.14-1.51,0-2.93.25-4.26.76-1.33.51-2.5,1.21-3.52,2.12-1.02.91-1.82,1.97-2.39,3.19-.58,1.22-.87,2.54-.87,3.97s.24,2.84.73,4.02c.49,1.18,1.18,2.19,2.07,3.01.89.82,1.96,1.45,3.2,1.88,1.24.43,2.62.64,4.14.64M119.81,45.12c-.74,0-1.44-.27-2.09-.81-.45-.5-1.01-1.21-1.68-2.12-.66-.91-1.32-1.84-1.95-2.8-.19-.27-.38-.45-.58-.56-.2-.1-.43-.15-.68-.15-.49,0-1.13.15-1.93.44-.8.29-1.82.59-3.06.88-1.25.29-2.78.44-4.62.44-2.3,0-4.41-.35-6.33-1.05-1.92-.7-3.57-1.7-4.97-3.01-1.4-1.31-2.48-2.91-3.25-4.79-.77-1.88-1.16-4.01-1.16-6.38s.46-4.53,1.39-6.47c.93-1.94,2.2-3.62,3.83-5.03,1.63-1.41,3.51-2.5,5.65-3.27,2.14-.76,4.41-1.15,6.81-1.15s4.65.34,6.68,1.02c2.03.68,3.8,1.67,5.28,2.98,1.49,1.3,2.65,2.88,3.48,4.73.83,1.85,1.25,3.95,1.25,6.31,0,1.38-.13,2.64-.39,3.78-.26,1.14-.63,2.17-1.11,3.08-.48.91-1.06,1.7-1.73,2.37-.47.45-.71.86-.71,1.21,0,.22.15.46.44.72.29.26.72.58,1.27.97.44.45.87.93,1.29,1.42.42.5.8.99,1.14,1.49.34.5.6.98.79,1.46.19.48.29.94.29,1.4,0,.56-.16,1.05-.48,1.49-.32.44-.74.78-1.26,1.02-.52.24-1.06.37-1.61.37"/>
      <path class="cls-3" d="M65.19,103.37c-.65-2.01-1.29-4.01-1.94-6.02-.09-.29-.19-.58-.28-.87-.34-1.07-1.81-1.61-2.8-1.15-1.12.53-1.52,1.65-1.15,2.8.65,2,1.29,4.01,1.94,6.01.09.29.19.58.28.87.34,1.07,1.81,1.61,2.8,1.15,1.12-.53,1.52-1.65,1.15-2.8"/>
      <path class="cls-3" d="M52.75,105.55c.41-2.06.83-4.13,1.24-6.2.06-.3.12-.6.18-.9.22-1.1-.8-2.29-1.88-2.37-1.23-.09-2.13.7-2.37,1.88-.41,2.06-.83,4.13-1.24,6.19-.06.3-.12.6-.18.89-.22,1.1.8,2.29,1.88,2.37,1.24.09,2.13-.7,2.37-1.88"/>
      <path class="cls-3" d="M40.83,101.39c1.37-1.6,2.74-3.2,4.1-4.8.2-.23.4-.46.59-.69.73-.85.42-2.39-.49-2.98-1.04-.68-2.2-.42-2.98.49-1.37,1.6-2.74,3.2-4.1,4.8-.2.23-.4.46-.59.69-.73.85-.42,2.39.49,2.98,1.04.68,2.2.42,2.98-.49"/>
      <path class="cls-3" d="M32.44,91.95c1.97-.73,3.95-1.46,5.93-2.19.28-.11.57-.21.85-.32,1.05-.39,1.53-1.88,1.03-2.84-.58-1.1-1.72-1.44-2.84-1.03-1.98.73-3.95,1.46-5.93,2.19-.28.11-.57.21-.86.32-1.05.39-1.53,1.88-1.03,2.84.58,1.1,1.72,1.44,2.84,1.03"/>
      <path class="cls-3" d="M29.72,79.62c2.08.32,4.16.65,6.24.97.3.05.6.09.9.14,1.11.17,2.25-.89,2.28-1.98.03-1.24-.8-2.1-1.98-2.28-2.08-.32-4.16-.65-6.24-.97-.3-.05-.6-.09-.9-.14-1.11-.17-2.25.9-2.28,1.98-.03,1.24.8,2.1,1.98,2.28"/>
      <path class="cls-3" d="M17.05,66.37c1.64-.89,2.83-2.24,3.57-4.06.74-1.82,1.11-4.11,1.11-6.88,0-.62-.04-1.37-.11-2.27-.07-.9-.17-1.86-.3-2.89-.13-1.03-.27-2.05-.44-3.05-.17-1-.34-1.91-.53-2.73-.19-.81-.38-1.46-.58-1.92-.29-.53-.68-.93-1.15-1.19-.47-.26-.99-.39-1.53-.39-1.54,0-2.31.8-2.31,2.39,0,.32.03.75.09,1.3.06.55.14,1.14.24,1.78.1.64.19,1.28.28,1.93.09.64.16,1.23.23,1.78.07.54.1.99.1,1.33,0,.39-.11.58-.32.58-.11,0-.28-.07-.53-.2-.25-.13-.52-.29-.83-.46-.43-.24-.98-.47-1.65-.69-.68-.22-1.52-.33-2.54-.33-1.85,0-3.43.32-4.75.97-1.32.65-2.34,1.6-3.05,2.86-.71,1.26-1.06,2.79-1.06,4.61,0,1.94.39,3.57,1.17,4.89.78,1.32,1.89,2.31,3.33,2.98,1.44.67,3.14,1,5.11,1,2.67,0,4.83-.44,6.47-1.33M7.85,64c-.81-.45-1.45-1.08-1.9-1.9-.45-.82-.68-1.8-.68-2.92,0-1.19.24-2.19.72-3.01.48-.82,1.16-1.43,2.05-1.85.88-.42,1.92-.62,3.11-.62,1.1,0,2.03.2,2.81.6.78.4,1.38.99,1.81,1.78.43.78.64,1.76.64,2.92s-.22,2.19-.65,3.04c-.43.85-1.07,1.5-1.92,1.96-.84.45-1.88.68-3.11.68-1.1,0-2.05-.22-2.87-.67M41.46,66.79c1.53-.61,2.84-1.42,3.91-2.45,1.08-1.02,1.9-2.18,2.47-3.48.57-1.3.85-2.65.85-4.05,0-1.86-.34-3.45-1.03-4.76-.69-1.32-1.62-2.39-2.78-3.22-1.16-.83-2.47-1.44-3.93-1.82-1.46-.39-2.95-.58-4.47-.58-1.68,0-3.27.24-4.74.73-1.48.49-2.78,1.22-3.9,2.19-1.12.97-2,2.18-2.64,3.63-.64,1.45-.95,3.15-.95,5.08,0,1.77.33,3.26.98,4.49.65,1.23,1.55,2.22,2.68,2.98,1.13.76,2.41,1.31,3.85,1.66,1.44.35,2.93.52,4.48.52,1.95,0,3.69-.31,5.23-.91M32.23,62.56c-1.04-.47-1.83-1.17-2.36-2.09-.53-.92-.79-2.02-.79-3.3,0-1.58.33-2.88.99-3.92.66-1.04,1.53-1.81,2.6-2.33,1.07-.51,2.21-.77,3.41-.77.92,0,1.82.11,2.71.33.88.22,1.68.57,2.4,1.05.71.48,1.29,1.11,1.72,1.89.43.78.65,1.74.65,2.86,0,.8-.14,1.61-.41,2.43-.27.82-.71,1.57-1.3,2.26-.59.69-1.37,1.24-2.32,1.66-.95.42-2.11.63-3.47.63-1.51,0-2.79-.24-3.83-.71M68.6,89.44c2.54-1.38,4.39-3.48,5.54-6.3,1.15-2.82,1.73-6.38,1.73-10.67,0-.96-.06-2.13-.17-3.52-.11-1.39-.27-2.88-.47-4.48-.2-1.6-.43-3.18-.68-4.73-.26-1.56-.53-2.97-.82-4.23-.29-1.26-.59-2.26-.9-2.99-.46-.83-1.05-1.45-1.79-1.85-.74-.4-1.53-.61-2.38-.61-2.39,0-3.58,1.23-3.58,3.7,0,.5.05,1.17.14,2.02.09.85.22,1.77.37,2.77.16,1,.3,1.99.44,2.99.13,1,.25,1.91.36,2.75.1.84.16,1.53.16,2.07,0,.6-.17.9-.5.9-.17,0-.44-.1-.82-.31-.39-.21-.82-.45-1.29-.72-.66-.37-1.52-.73-2.57-1.07-1.05-.34-2.36-.51-3.94-.51-2.86,0-5.32.5-7.38,1.51-2.05,1.01-3.63,2.49-4.73,4.43-1.1,1.95-1.65,4.34-1.65,7.16,0,3.01.61,5.53,1.82,7.58,1.21,2.05,2.94,3.59,5.17,4.62,2.23,1.04,4.87,1.56,7.92,1.56,4.15,0,7.49-.69,10.04-2.07M54.33,85.77c-1.27-.69-2.25-1.68-2.96-2.96-.71-1.28-1.06-2.78-1.06-4.53,0-1.85.37-3.4,1.12-4.67.75-1.26,1.8-2.22,3.17-2.86,1.37-.64,2.98-.97,4.82-.97,1.7,0,3.15.31,4.36.93,1.2.62,2.14,1.54,2.8,2.75.66,1.21,1,2.72,1,4.53s-.34,3.4-1.01,4.71c-.67,1.32-1.66,2.33-2.97,3.03-1.31.7-2.91,1.06-4.82,1.06-1.7,0-3.18-.35-4.45-1.04M88.42,90.05c.67-.46,1.22-1.25,1.63-2.37.17-.48.31-1.19.44-2.13.12-.94.25-2.03.39-3.27.13-1.23.25-2.53.34-3.87.09-1.35.18-2.67.26-3.95.08-1.29.15-2.46.19-3.52.04-1.06.06-1.9.06-2.52,0-1.66-.27-2.94-.81-3.83-.54-.89-1.4-1.34-2.58-1.34-1.24,0-2.28.32-3.1.95-.82.63-1.44,1.6-1.85,2.91-.1.54-.21,1.25-.33,2.15-.12.89-.22,1.9-.31,3.02-.09,1.12-.18,2.28-.26,3.47-.08,1.19-.16,2.38-.22,3.55-.06,1.17-.11,2.26-.14,3.25-.03.99-.05,1.85-.05,2.55,0,1.29.11,2.35.34,3.19.23.84.63,1.46,1.2,1.85.57.39,1.34.59,2.32.59s1.8-.23,2.48-.68M91.39,57.96c1.02-.29,1.84-.75,2.46-1.37.62-.62.93-1.43.93-2.43,0-.91-.2-1.65-.61-2.21-.4-.56-.95-.98-1.64-1.24-.68-.27-1.43-.4-2.24-.4-1.12,0-2.24.19-3.36.56-1.12.37-2.07.92-2.83,1.63-.77.72-1.15,1.6-1.15,2.66,0,.83.36,1.58,1.09,2.24.73.66,2.06,1,4.01,1,1.2,0,2.31-.15,3.33-.44M117.81,92.24c1.49-.43,2.72-.92,3.69-1.49.96-.57,1.76-1.08,2.38-1.54.5-.35.92-.61,1.26-.78.34-.17.66-.25.95-.25.5,0,.92.21,1.26.62.34.42.73.84,1.15,1.26.43.42.96.64,1.6.64.71,0,1.35-.2,1.93-.59.58-.39.87-1.04.87-1.93,0-.6-.17-1.15-.5-1.63-.33-.49-.72-.95-1.17-1.38-.45-.44-.83-.88-1.15-1.32-.32-.45-.48-.92-.48-1.42,0-.35.05-.74.16-1.15.1-.42.23-.91.39-1.48.16-.57.28-1.24.39-2.01s.16-1.67.16-2.71c0-3.49-.62-6.26-1.87-8.33-1.24-2.06-3.11-3.56-5.59-4.48-2.48-.92-5.55-1.38-9.23-1.38-1.83,0-3.54.15-5.15.44-1.61.29-3.02.69-4.23,1.21-1.21.52-2.17,1.12-2.86,1.81-.69.68-1.04,1.43-1.04,2.24s.3,1.36.89,1.71c.59.35,1.43.53,2.5.53.79,0,1.66-.18,2.61-.53.96-.35,2.05-.69,3.28-1.03,1.23-.33,2.65-.5,4.25-.5,1.35,0,2.61.12,3.78.36,1.17.24,2.17.64,3,1.2.52.33.96.74,1.34,1.21.37.48.66,1.03.86,1.65.2.62.3,1.34.3,2.15,0,.44-.09.74-.28.92-.19.18-.55.26-1.09.26-.41,0-.92-.02-1.52-.06s-1.24-.08-1.93-.12c-.68-.04-1.36-.06-2.02-.06-2.16,0-4.24.14-6.26.4-2.01.27-3.82.75-5.43,1.45-1.61.7-2.88,1.65-3.81,2.88-.93,1.22-1.4,2.79-1.4,4.7,0,1.68.33,3.1,1,4.26.66,1.16,1.58,2.1,2.74,2.83,1.16.73,2.49,1.26,4,1.59,1.5.33,3.1.5,4.78.5,2.18,0,4.01-.21,5.51-.64M109.5,87.59c-1.02-.35-1.79-.87-2.33-1.56-.54-.68-.81-1.56-.81-2.61,0-1.37.45-2.45,1.34-3.25.89-.8,2.07-1.37,3.55-1.71,1.47-.34,3.07-.51,4.79-.51s3.14.04,4.19.12c1.05.08,1.81.28,2.29.59.48.31.71.82.71,1.52,0,1.14-.28,2.19-.84,3.14-.56.95-1.32,1.79-2.27,2.5-.95.72-2.03,1.28-3.24,1.68-1.2.4-2.45.61-3.74.61-1.41,0-2.62-.18-3.64-.53M174.39,92.24c1.49-.43,2.72-.92,3.69-1.49.96-.57,1.76-1.08,2.38-1.54.5-.35.92-.61,1.26-.78.34-.17.66-.25.95-.25.5,0,.92.21,1.26.62.34.42.73.84,1.15,1.26s.96.64,1.6.64c.7,0,1.35-.2,1.93-.59.58-.39.87-1.04.87-1.93,0-.6-.17-1.15-.5-1.63-.33-.49-.72-.95-1.17-1.38-.45-.44-.83-.88-1.15-1.32-.32-.45-.48-.92-.48-1.42,0-.35.05-.74.15-1.15.1-.42.23-.91.39-1.48.15-.57.28-1.24.39-2.01.1-.77.16-1.67.16-2.71,0-3.49-.62-6.26-1.87-8.33-1.25-2.06-3.11-3.56-5.59-4.48-2.48-.92-5.55-1.38-9.23-1.38-1.82,0-3.54.15-5.15.44-1.61.29-3.02.69-4.23,1.21-1.21.52-2.17,1.12-2.86,1.81-.7.68-1.04,1.43-1.04,2.24s.3,1.36.89,1.71c.59.35,1.43.53,2.51.53.79,0,1.66-.18,2.61-.53s2.05-.69,3.28-1.03c1.23-.33,2.65-.5,4.25-.5,1.35,0,2.61.12,3.78.36,1.17.24,2.17.64,3,1.2.52.33.96.74,1.34,1.21.37.48.66,1.03.86,1.65.2.62.3,1.34.3,2.15,0,.44-.09.74-.28.92-.19.18-.55.26-1.09.26-.42,0-.92-.02-1.53-.06-.6-.04-1.24-.08-1.93-.12-.68-.04-1.36-.06-2.02-.06-2.16,0-4.24.14-6.26.4-2.01.27-3.82.75-5.43,1.45-1.61.7-2.88,1.65-3.81,2.88-.93,1.22-1.4,2.79-1.4,4.7,0,1.68.33,3.1,1,4.26.66,1.16,1.58,2.1,2.74,2.83,1.16.73,2.5,1.26,4,1.59,1.5.33,3.1.5,4.78.5,2.18,0,4.01-.21,5.51-.64M166.08,87.59c-1.02-.35-1.79-.87-2.33-1.56-.54-.68-.81-1.56-.81-2.61,0-1.37.45-2.45,1.34-3.25.89-.8,2.07-1.37,3.55-1.71,1.47-.34,3.07-.51,4.79-.51s3.14.04,4.19.12c1.05.08,1.81.28,2.29.59.48.31.72.82.72,1.52,0,1.14-.28,2.19-.84,3.14-.56.95-1.32,1.79-2.27,2.5s-2.03,1.28-3.24,1.68c-1.2.4-2.45.61-3.74.61-1.41,0-2.62-.18-3.64-.53M236.89,89.44c2.54-1.38,4.39-3.48,5.54-6.3,1.15-2.82,1.73-6.38,1.73-10.67,0-.96-.06-2.13-.17-3.52-.11-1.39-.27-2.88-.47-4.48-.2-1.6-.43-3.18-.69-4.73-.26-1.56-.53-2.97-.82-4.23-.29-1.26-.59-2.26-.9-2.99-.46-.83-1.05-1.45-1.79-1.85-.74-.4-1.53-.61-2.38-.61-2.39,0-3.58,1.23-3.58,3.7,0,.5.05,1.17.14,2.02.09.85.22,1.77.37,2.77.16,1,.3,1.99.44,2.99.13,1,.25,1.91.36,2.75.1.84.16,1.53.16,2.07,0,.6-.17.9-.5.9-.17,0-.44-.1-.83-.31-.38-.21-.81-.45-1.29-.72-.66-.37-1.52-.73-2.57-1.07-1.05-.34-2.36-.51-3.94-.51-2.86,0-5.32.5-7.38,1.51-2.05,1.01-3.63,2.49-4.73,4.43-1.1,1.95-1.65,4.34-1.65,7.16,0,3.01.61,5.53,1.82,7.58,1.21,2.05,2.94,3.59,5.17,4.62,2.23,1.04,4.87,1.56,7.92,1.56,4.15,0,7.49-.69,10.04-2.07M222.62,85.77c-1.27-.69-2.25-1.68-2.96-2.96-.71-1.28-1.06-2.78-1.06-4.53,0-1.85.37-3.4,1.12-4.67.75-1.26,1.8-2.22,3.17-2.86,1.37-.64,2.98-.97,4.82-.97,1.7,0,3.15.31,4.36.93,1.2.62,2.14,1.54,2.8,2.75.66,1.21,1,2.72,1,4.53s-.34,3.4-1.01,4.71c-.67,1.32-1.66,2.33-2.97,3.03-1.31.7-2.92,1.06-4.82,1.06-1.7,0-3.18-.35-4.45-1.04M256.71,90.05c.67-.46,1.22-1.25,1.63-2.37.17-.48.31-1.19.44-2.13.12-.94.25-2.03.39-3.27.13-1.23.25-2.53.34-3.87.09-1.35.18-2.67.26-3.95.08-1.29.14-2.46.19-3.52.04-1.06.06-1.9.06-2.52,0-1.66-.27-2.94-.81-3.83-.54-.89-1.4-1.34-2.58-1.34-1.24,0-2.28.32-3.1.95-.82.63-1.44,1.6-1.85,2.91-.1.54-.21,1.25-.33,2.15-.11.89-.22,1.9-.31,3.02-.09,1.12-.18,2.28-.26,3.47-.08,1.19-.16,2.38-.22,3.55-.06,1.17-.11,2.26-.14,3.25-.03.99-.05,1.85-.05,2.55,0,1.29.11,2.35.34,3.19.23.84.63,1.46,1.2,1.85.57.39,1.34.59,2.32.59s1.8-.23,2.47-.68M259.69,57.96c1.02-.29,1.84-.75,2.46-1.37.62-.62.93-1.43.93-2.43,0-.91-.2-1.65-.61-2.21-.4-.56-.95-.98-1.63-1.24-.68-.27-1.43-.4-2.24-.4-1.12,0-2.24.19-3.36.56-1.12.37-2.07.92-2.83,1.63-.77.72-1.15,1.6-1.15,2.66,0,.83.36,1.58,1.09,2.24.73.66,2.06,1,4.01,1,1.2,0,2.31-.15,3.33-.44M286.11,92.24c1.49-.43,2.72-.92,3.69-1.49.96-.57,1.76-1.08,2.38-1.54.5-.35.92-.61,1.26-.78.34-.17.66-.25.95-.25.5,0,.92.21,1.26.62.34.42.73.84,1.15,1.26.42.42.96.64,1.6.64.7,0,1.35-.2,1.93-.59.58-.39.87-1.04.87-1.93,0-.6-.17-1.15-.5-1.63-.33-.49-.72-.95-1.17-1.38-.45-.44-.83-.88-1.15-1.32-.32-.45-.48-.92-.48-1.42,0-.35.05-.74.15-1.15.1-.42.23-.91.39-1.48.16-.57.29-1.24.39-2.01.1-.77.15-1.67.15-2.71,0-3.49-.62-6.26-1.87-8.33s-3.11-3.56-5.59-4.48c-2.48-.92-5.55-1.38-9.23-1.38-1.83,0-3.54.15-5.15.44-1.61.29-3.02.69-4.23,1.21-1.21.52-2.17,1.12-2.86,1.81-.7.68-1.04,1.43-1.04,2.24s.29,1.36.89,1.71c.59.35,1.43.53,2.51.53.79,0,1.66-.18,2.61-.53.95-.35,2.05-.69,3.28-1.03,1.23-.33,2.65-.5,4.25-.5,1.35,0,2.61.12,3.78.36,1.17.24,2.17.64,3,1.2.52.33.96.74,1.34,1.21.37.48.66,1.03.86,1.65.2.62.3,1.34.3,2.15,0,.44-.09.74-.28.92-.19.18-.55.26-1.09.26-.42,0-.92-.02-1.52-.06-.6-.04-1.24-.08-1.93-.12-.68-.04-1.36-.06-2.02-.06-2.16,0-4.24.14-6.26.4-2.01.27-3.82.75-5.43,1.45-1.61.7-2.88,1.65-3.81,2.88-.93,1.22-1.4,2.79-1.4,4.7,0,1.68.33,3.1.99,4.26.66,1.16,1.58,2.1,2.74,2.83,1.16.73,2.49,1.26,4,1.59,1.5.33,3.1.5,4.78.5,2.18,0,4.01-.21,5.51-.64M277.8,87.59c-1.02-.35-1.8-.87-2.33-1.56-.54-.68-.81-1.56-.81-2.61,0-1.37.44-2.45,1.34-3.25.89-.8,2.08-1.37,3.55-1.71,1.47-.34,3.07-.51,4.79-.51s3.14.04,4.19.12c1.05.08,1.81.28,2.29.59.48.31.72.82.72,1.52,0,1.14-.28,2.19-.84,3.14-.56.95-1.32,1.79-2.27,2.5-.96.72-2.03,1.28-3.24,1.68-1.2.4-2.45.61-3.73.61-1.41,0-2.62-.18-3.64-.53"/>
      <path class="cls-3" d="M71.44,33.41c-.56.96-1.32,1.79-2.28,2.51-.96.72-2.04,1.28-3.25,1.68-1.21.4-2.45.61-3.74.61-1.41,0-2.63-.18-3.65-.53-1.02-.35-1.8-.87-2.34-1.56-.54-.69-.81-1.56-.81-2.62,0-1.37.45-2.46,1.34-3.26.89-.8,2.08-1.37,3.56-1.72,1.48-.34,3.08-.51,4.8-.51s3.15.04,4.19.12c1.05.08,1.82.28,2.29.59.48.31.72.82.72,1.53,0,1.15-.28,2.2-.84,3.15M80.32,35.25c-.45-.44-.83-.88-1.16-1.33-.32-.45-.48-.92-.48-1.42,0-.35.05-.74.16-1.15.1-.42.23-.91.39-1.48s.29-1.24.39-2.01c.1-.77.16-1.67.16-2.71,0-3.5-.62-6.28-1.87-8.35-1.25-2.07-3.12-3.57-5.6-4.49-2.49-.92-5.57-1.39-9.25-1.39-1.83,0-3.55.15-5.16.44-1.61.29-3.03.7-4.24,1.22-1.22.52-2.17,1.12-2.87,1.81-.7.68-1.04,1.43-1.04,2.24s.3,1.36.89,1.72c.59.35,1.43.53,2.51.53.79,0,1.66-.18,2.62-.53.96-.35,2.05-.7,3.29-1.03,1.24-.33,2.66-.5,4.26-.5,1.35,0,2.62.12,3.79.36,1.18.24,2.18.64,3.01,1.2.52.33.97.74,1.34,1.22.38.48.66,1.03.86,1.65.2.62.3,1.34.3,2.15,0,.44-.09.74-.28.92-.19.18-.55.26-1.09.26-.42,0-.93-.02-1.53-.06-.6-.04-1.25-.08-1.93-.12-.69-.04-1.36-.06-2.03-.06-2.16,0-4.25.14-6.27.4-2.02.27-3.83.76-5.44,1.45-1.61.7-2.88,1.66-3.82,2.89-.94,1.23-1.4,2.8-1.4,4.71,0,1.68.33,3.11,1,4.28.66,1.17,1.58,2.11,2.75,2.84,1.16.73,2.5,1.26,4.01,1.59,1.51.33,3.1.5,4.79.5,2.18,0,4.03-.21,5.52-.64,1.5-.43,2.73-.93,3.7-1.5.97-.57,1.76-1.09,2.39-1.54.5-.35.92-.61,1.26-.78.34-.17.66-.25.95-.25.5,0,.92.21,1.26.62.34.42.73.84,1.15,1.26.43.43.96.64,1.61.64.71,0,1.35-.2,1.93-.59.58-.39.87-1.04.87-1.94,0-.6-.17-1.15-.5-1.64-.33-.49-.72-.95-1.17-1.39"/>
      <path class="cls-3" d="M40.9,13.57c-1.25-1.23-2.9-1.84-4.96-1.84-1.54,0-2.88.34-4.01,1.01-1.13.68-2.17,1.63-3.12,2.87-.95,1.24-1.91,2.72-2.89,4.44-.69,1.23-1.35,2.24-2,3.03-.65.79-1.28,1.19-1.9,1.19-.52,0-.99-.4-1.4-1.2-.42-.8-.8-1.72-1.15-2.76-.46-1.5-1.01-2.9-1.67-4.21-.65-1.31-1.48-2.38-2.48-3.2-1-.82-2.25-1.23-3.74-1.23-2.1,0-3.9.64-5.4,1.9-1.5,1.27-2.76,3.08-3.78,5.43-.35.92-.66,1.92-.92,3.01-.26,1.09-.48,2.22-.67,3.38-.19,1.17-.34,2.34-.47,3.53-.12,1.18-.21,2.33-.27,3.45C.03,33.48,0,34.52,0,35.47c0,1.08.11,2,.34,2.76.23.76.58,1.34,1.06,1.73.48.39,1.09.59,1.84.59,1.1,0,1.91-.28,2.42-.83.51-.55.87-1.46,1.08-2.73.04-1.18.13-2.49.26-3.92.13-1.42.35-2.91.64-4.46.29-1.55.69-3.07,1.19-4.57.48-1.35,1.01-2.35,1.59-3.01.58-.66,1.23-.98,1.93-.98s1.34.31,1.83.92c.49.61.92,1.45,1.3,2.51.38,1.06.74,2.26,1.09,3.59.46,1.73,1.06,3.08,1.82,4.06.76.98,1.84,1.47,3.26,1.47s2.62-.52,3.56-1.58c.94-1.05,1.89-2.58,2.87-4.6.62-1.23,1.24-2.37,1.86-3.43.61-1.06,1.25-1.92,1.9-2.57.65-.66,1.34-.98,2.07-.98s1.35.33,1.81,1c.46.67.79,1.53,1,2.59.21,1.06.33,2.21.37,3.43.02,1.08.03,2.11.02,3.09-.01.98-.03,1.89-.06,2.73-.03.84-.06,1.62-.08,2.32-.02.71-.03,1.36-.02,1.95.01.59.04,1.11.08,1.54.23.73.58,1.31,1.06,1.73.48.43,1.1.64,1.87.64.85,0,1.54-.24,2.06-.73.52-.49.96-1.31,1.31-2.45.19-.83.35-1.73.5-2.7.14-.97.26-1.97.36-3.01.09-1.04.16-2.08.2-3.12.04-1.04.06-2.05.06-3.03,0-2.54-.28-4.84-.84-6.91-.56-2.07-1.47-3.72-2.71-4.95"/>
      <path class="cls-3" d="M60.99,9.02c.29.21.66.31,1.12.31.98,0,2.25-.29,3.81-.88,1.56-.58,3.08-1.26,4.56-2.03,1.39-.73,2.48-1.44,3.26-2.14.78-.7,1.17-1.45,1.17-2.26,0-.69-.19-1.2-.56-1.53-.37-.33-.88-.5-1.53-.5-.73,0-1.67.25-2.82.73-1.15.49-2.29,1.09-3.42,1.79-1.73,1.08-3.16,2.11-4.31,3.07-1.14.97-1.72,1.76-1.72,2.39,0,.48.15.82.44,1.03"/>
      <path class="cls-3" d="M161.23,15.22c-.19-1.19-.53-2.1-1.01-2.76-.49-.65-1.23-.98-2.23-.98-1.14,0-2.01.37-2.59,1.12-.58.75-.99,1.8-1.22,3.15-.08.69-.16,1.37-.23,2.04-.07.68-.14,1.35-.19,2.01-.05.67-.12,1.33-.19,1.98-.07.66-.16,1.29-.26,1.92-.35,2.41-.89,4.48-1.61,6.19-.72,1.72-1.74,3.03-3.07,3.93-1.33.9-3.09,1.36-5.27,1.36s-3.83-.57-5.07-1.7c-1.24-1.13-2.13-2.71-2.67-4.74-.54-2.03-.86-4.37-.97-7.04-.02-.46-.04-.96-.05-1.51-.01-.55-.02-1.12-.02-1.7v-3.12c-.02-.58-.11-1.17-.26-1.76-.16-.59-.47-1.09-.95-1.48-.48-.39-1.19-.59-2.12-.59-1,0-1.85.32-2.56.97-.71.65-1.25,1.68-1.62,3.09-.17.56-.3,1.2-.4,1.9-.1.71-.18,1.44-.23,2.2-.05.76-.08,1.51-.08,2.26,0,3.1.31,5.88.94,8.35.62,2.46,1.6,4.57,2.93,6.3,1.33,1.74,3.06,3.07,5.18,4.01,2.12.94,4.68,1.4,7.67,1.4,3.83,0,7.04-.68,9.62-2.03,2.59-1.35,4.58-3.34,5.97-5.97,1.39-2.63,2.23-5.86,2.5-9.69.06-.75.11-1.5.14-2.25.03-.75.05-1.51.06-2.28.01-.77,0-1.53-.01-2.29-.02-.76-.06-1.52-.12-2.29"/>
      <path class="cls-3" d="M288.46,27.94c-.81-1.13-2.01-2.07-3.6-2.81-1.59-.74-3.59-1.35-6.01-1.82-2.6-.54-4.57-1.14-5.91-1.81-1.34-.67-2.01-1.61-2.01-2.84,0-.81.31-1.47.92-1.98.61-.51,1.43-.89,2.45-1.14,1.02-.25,2.12-.37,3.31-.37,1.35,0,2.61.1,3.76.31,1.15.21,2.18.31,3.07.31.56,0,1.08-.08,1.55-.25.47-.17.85-.44,1.14-.81.29-.37.44-.86.44-1.47,0-.56-.32-1.05-.97-1.45-.64-.4-1.49-.74-2.54-1-1.05-.26-2.18-.46-3.4-.59-1.22-.13-2.41-.2-3.57-.2-1.91,0-3.74.16-5.47.48-1.74.32-3.28.81-4.63,1.47-1.35.66-2.42,1.49-3.2,2.5-.78,1.01-1.17,2.2-1.17,3.57,0,1.58.43,2.94,1.3,4.07.86,1.13,2.12,2.09,3.78,2.85,1.65.77,3.68,1.39,6.07,1.87,2.18.44,3.88.86,5.09,1.28,1.21.42,2.05.9,2.54,1.47.49.56.73,1.29.73,2.18,0,.98-.39,1.75-1.17,2.31-.78.56-1.78.96-2.99,1.2-1.22.24-2.5.36-3.85.36s-2.67-.12-3.9-.36c-1.23-.24-2.32-.47-3.29-.69-.97-.22-1.77-.33-2.42-.33-.92,0-1.61.21-2.09.64-.48.43-.72,1.05-.72,1.86,0,.73.24,1.29.73,1.68.49.4,1.12.75,1.89,1.06.85.33,1.89.61,3.12.84,1.23.23,2.54.4,3.93.51,1.39.11,2.74.17,4.02.17,1.89,0,3.7-.17,5.43-.5,1.73-.33,3.26-.85,4.59-1.54,1.33-.7,2.38-1.61,3.15-2.73.77-1.12,1.15-2.48,1.15-4.09,0-1.68-.41-3.09-1.22-4.23"/>
      <path class="cls-3" d="M174.34,13.29c-1.25,0-2.28.32-3.11.95-.82.64-1.44,1.61-1.85,2.92-.1.54-.21,1.26-.33,2.15-.11.89-.22,1.9-.31,3.03-.09,1.12-.18,2.28-.26,3.48-.08,1.2-.16,2.38-.22,3.56-.06,1.18-.11,2.26-.14,3.26-.03,1-.05,1.85-.05,2.56,0,1.29.11,2.36.34,3.2.23.84.63,1.46,1.2,1.86.57.39,1.35.59,2.32.59s1.8-.23,2.48-.69c.68-.46,1.22-1.25,1.64-2.37.17-.48.31-1.19.44-2.14.12-.95.25-2.04.39-3.28.14-1.24.25-2.53.34-3.88.09-1.35.18-2.67.27-3.96.08-1.29.15-2.46.19-3.53.04-1.06.06-1.9.06-2.53,0-1.66-.27-2.94-.81-3.84-.54-.89-1.4-1.34-2.59-1.34"/>
      <path class="cls-3" d="M247.84,33.41c-.56.96-1.32,1.79-2.28,2.51-.96.72-2.04,1.28-3.25,1.68-1.21.4-2.46.61-3.74.61-1.41,0-2.63-.18-3.65-.53-1.02-.35-1.8-.87-2.34-1.56-.54-.69-.81-1.56-.81-2.62,0-1.37.45-2.46,1.34-3.26.89-.8,2.08-1.37,3.56-1.72,1.48-.34,3.08-.51,4.81-.51s3.15.04,4.2.12c1.05.08,1.82.28,2.29.59.48.31.72.82.72,1.53,0,1.15-.28,2.2-.84,3.15M256.72,35.25c-.45-.44-.83-.88-1.16-1.33-.32-.45-.48-.92-.48-1.42,0-.35.05-.74.16-1.15.1-.42.23-.91.39-1.48.16-.57.29-1.24.39-2.01.1-.77.15-1.67.15-2.71,0-3.5-.62-6.28-1.87-8.35-1.25-2.07-3.12-3.57-5.6-4.49-2.49-.92-5.57-1.39-9.25-1.39-1.83,0-3.55.15-5.16.44-1.61.29-3.03.7-4.24,1.22-1.22.52-2.17,1.12-2.87,1.81-.7.68-1.04,1.43-1.04,2.24s.3,1.36.89,1.72c.59.35,1.43.53,2.51.53.79,0,1.66-.18,2.62-.53.96-.35,2.05-.7,3.29-1.03,1.24-.33,2.66-.5,4.26-.5,1.35,0,2.62.12,3.79.36,1.18.24,2.18.64,3.01,1.2.52.33.97.74,1.34,1.22.38.48.66,1.03.86,1.65.2.62.3,1.34.3,2.15,0,.44-.09.74-.28.92-.19.18-.55.26-1.09.26-.42,0-.93-.02-1.53-.06-.6-.04-1.25-.08-1.93-.12s-1.36-.06-2.03-.06c-2.16,0-4.25.14-6.27.4-2.02.27-3.83.76-5.45,1.45-1.61.7-2.88,1.66-3.82,2.89-.94,1.23-1.4,2.8-1.4,4.71,0,1.68.33,3.11,1,4.28.66,1.17,1.58,2.11,2.75,2.84,1.16.73,2.5,1.26,4.01,1.59,1.51.33,3.1.5,4.79.5,2.18,0,4.03-.21,5.52-.64,1.5-.43,2.73-.93,3.7-1.5.97-.57,1.76-1.09,2.39-1.54.5-.35.92-.61,1.26-.78.34-.17.66-.25.95-.25.5,0,.92.21,1.26.62.34.42.73.84,1.15,1.26.43.43.96.64,1.61.64.71,0,1.35-.2,1.93-.59.58-.39.87-1.04.87-1.94,0-.6-.17-1.15-.5-1.64-.33-.49-.72-.95-1.17-1.39"/>
      <path class="cls-3" d="M212.02,13.07c-2.54-1.43-5.58-2.15-9.14-2.15s-6.58.76-9.14,2.26c-2.56,1.51-4.55,3.7-5.99,6.58-1.43,2.88-2.28,6.39-2.53,10.53-.08,1.04-.14,2-.16,2.87-.02.87-.02,1.65,0,2.34.02.69.06,1.3.12,1.84.27,1.17.69,2.01,1.25,2.53.56.52,1.33.78,2.31.78.79,0,1.49-.11,2.09-.34.6-.23,1.1-.65,1.5-1.28.39-.62.64-1.52.75-2.68.08-1.23.17-2.4.26-3.53.09-1.12.21-2.19.34-3.21.14-1.02.31-2.01.52-2.96.21-.96.47-1.87.78-2.75.71-2.06,1.71-3.69,3.01-4.88,1.3-1.2,3.02-1.79,5.16-1.79s3.9.55,5.02,1.65c1.12,1.1,1.92,2.71,2.4,4.84.19.83.34,1.66.47,2.48.12.82.23,1.71.33,2.65.09.95.17,2.02.22,3.21.05,1.2.11,2.57.17,4.13.08.98.23,1.8.45,2.46.22.67.59,1.17,1.12,1.5.53.33,1.3.5,2.29.5s1.77-.29,2.39-.87c.61-.58,1.08-1.54,1.39-2.87.12-.48.22-1.01.28-1.59.06-.58.11-1.23.14-1.93.03-.71.05-1.48.05-2.31,0-4.62-.68-8.41-2.03-11.39-1.35-2.97-3.3-5.18-5.83-6.61"/>
      <path class="cls-3" d="M178.55.72c-.69-.27-1.44-.41-2.25-.41-1.12,0-2.25.19-3.37.56-1.12.37-2.07.92-2.84,1.64-.77.72-1.15,1.61-1.15,2.67,0,.83.36,1.58,1.09,2.25.73.67,2.07,1,4.03,1,1.21,0,2.32-.14,3.34-.44,1.02-.29,1.84-.75,2.46-1.37.62-.62.93-1.44.93-2.43,0-.92-.2-1.65-.61-2.22-.41-.56-.95-.98-1.64-1.25"/>
    </g>
  </g>
</svg>